PathFileType	4	(X/Y/Z)	C:/Users/opensim2020/Desktop/walking_exp_matlab/subject02_walking08_straight_01.trc																																																																																																																									
DataRate	CameraRate	NumFrames	NumMarkers	Units	OrigDataRate	OrigDataStartFrame	OrigNumFrames																																																																																																																					
100	100	6	41	mm	100	680	324																																																																																																																					
Frame#	Time	LFHD			RFHD			LBHD			RBHD			C7			T10			CLAV			STRN			RBAK			LSHO			LUPA			LELB			LFRM			LWRA			LWRB			LFIN			RSHO			RUPA			RELB			RFRM			RWRA			RWRB			RFIN			LASI			RASI			LPSI			RPSI			LTHI			LKNE			LTIB			LANK			LHEE			LTOE			RTHI			RKNE			RTIB			RANK			RHEE			RTOE			*39			*40		
		X1	Y1	Z1	X2	Y2	Z2	X3	Y3	Z3	X4	Y4	Z4	X5	Y5	Z5	X6	Y6	Z6	X7	Y7	Z7	X8	Y8	Z8	X9	Y9	Z9	X10	Y10	Z10	X11	Y11	Z11	X12	Y12	Z12	X13	Y13	Z13	X14	Y14	Z14	X15	Y15	Z15	X16	Y16	Z16	X17	Y17	Z17	X18	Y18	Z18	X19	Y19	Z19	X20	Y20	Z20	X21	Y21	Z21	X22	Y22	Z22	X23	Y23	Z23	X24	Y24	Z24	X25	Y25	Z25	X26	Y26	Z26	X27	Y27	Z27	X28	Y28	Z28	X29	Y29	Z29	X30	Y30	Z30	X31	Y31	Z31	X32	Y32	Z32	X33	Y33	Z33	X34	Y34	Z34	X35	Y35	Z35	X36	Y36	Z36	X37	Y37	Z37	X38	Y38	Z38	X39	Y39	Z39	X40	Y40	Z40	X41	Y41	Z41
																																																																																																																												
122	1.21	-410.38879	1727.82776	-1113.67627	-424.05481	1701.04321	-972.88593	-540.75128	1656.41223	-1139.01685	-566.20892	1628.16687	-1000.43152	-602.55908	1512.39563	-1073.25256	-660.40344	1237.25464	-1060.44812	-465.59073	1440.33838	-1085.88159	-416.71329	1268.12085	-1080.21851	-664.14001	1339.31055	-1008.03131	-528.03943	1485.72339	-1255.01221	-492.0321	1289.09167	-1342.34265	-446.23007	1153.78467	-1358.44714	-376.62463	1039.40417	-1357.93579	-278.28506	956.34106	-1306.00281	-312.89389	935.57306	-1346.26111	-263.82965	892.23572	-1343.71472	-521.57562	1473.47144	-887.60236	-553.20764	1283.62549	-804.46722	-541.02734	1137.39294	-784.33429	-501.05908	1022.35913	-769.27197	-439.42615	902.61517	-793.5636	-485.47116	893.06781	-759.98212	-441.35913	834.75659	-761.21021	-440.64169	971.09656	-1210.13062	-415.09967	965.45374	-952.86469	-642.94495	1016.81207	-1106.27698	-637.27917	1016.20074	-991.71643	-546.62701	665.47571	-1239.78088	-605.52667	469.83133	-1203.2854	-694.97217	296.01062	-1197.70642	-730.41284	75.82896	-1156.98486	-768.81146	50.97063	-1104.51685	-577.68549	30.36529	-1174.16833	-427.95645	668.80457	-861.69	-352.59567	475.03122	-895.87891	-326.43381	291.64685	-874.92645	-274.2457	102.6647	-894.82526	-287.76212	35.98288	-948.34015	-111.75521	96.99711	-893.91223	-519.26892	1789.41003	-1029.24878	NaN	NaN	NaN
123	1.22	-402.37241	1726.99023	-1111.94019	-416.28207	1699.75562	-971.22571	-533.03741	1656.02783	-1137.69275	-558.60052	1627.74597	-999.21375	-595.08984	1511.68665	-1072.03906	-652.4093	1236.26392	-1058.7804	-458.08414	1439.72974	-1084.94458	-409.04398	1267.58252	-1079.63232	-656.82153	1338.44604	-1006.76459	-520.83588	1485.29626	-1253.92871	-484.04959	1288.87402	-1341.16296	-437.11444	1153.84766	-1357.2915	-365.88263	1040.4928	-1356.16467	-266.26083	959.44049	-1303.53784	-300.53281	937.56702	-1343.64929	-250.66475	895.29803	-1341.20691	-513.79883	1472.58118	-886.46869	-546.37018	1282.74707	-803.56958	-533.37054	1136.38501	-783.66968	-494.59448	1021.25696	-768.31171	-433.40805	901.17114	-793.14935	-478.72852	892.09088	-759.06555	-434.9765	833.64429	-760.31177	-433.50262	970.24707	-1209.6958	-406.05826	964.40393	-952.74506	-635.21942	1016.2226	-1104.16577	-628.49231	1015.6228	-989.67706	-541.47913	665.23615	-1239.30981	-601.09399	469.88647	-1202.86523	-692.27917	297.01556	-1197.38855	-729.91693	77.01032	-1157.09802	-768.90521	53.25088	-1104.72754	-577.57819	30.43544	-1174.27234	-419.7402	667.68457	-861.14685	-344.91876	473.83209	-896.46906	-316.84723	290.93143	-875.46515	-261.92957	102.46083	-895.56787	-275.61353	36.19818	-949.20935	-99.44224	97.54771	-895.59302	-511.13031	1788.58435	-1027.41113	NaN	NaN	NaN
124	1.23	-394.20694	1726.35522	-1110.30701	-408.4046	1698.57275	-969.54224	-525.14374	1655.92542	-1136.23828	-551.4386	1627.20654	-998.10663	-587.56323	1511.00842	-1070.69641	-644.55695	1235.57043	-1057.03809	-450.50204	1439.15869	-1083.94141	-401.25214	1267.07324	-1078.89172	-648.20679	1337.28979	-1005.27844	-513.67603	1485.01233	-1252.7085	-476.14584	1288.5658	-1339.83521	-428.22144	1153.85815	-1355.85632	-355.39145	1041.36621	-1354.27588	-254.47641	962.19885	-1301.73975	-288.6073	939.58923	-1341.2135	-238.10339	898.00037	-1338.57422	-505.68567	1471.47327	-885.36975	-538.81525	1281.83264	-802.63605	-526.45929	1135.52686	-782.76154	-487.18802	1020.47443	-767.26886	-426.69937	899.92963	-791.67767	-472.16135	890.97626	-757.96826	-429.21002	832.27979	-759.23248	-426.17203	969.50116	-1209.12659	-396.89182	963.4361	-952.41144	-627.2934	1015.60016	-1101.98694	-619.6568	1015.10181	-987.43195	-536.05206	664.96405	-1238.64929	-596.41534	469.9595	-1202.4519	-689.40576	298.0889	-1197.22437	-729.38824	78.32398	-1157.25793	-768.47882	54.78376	-1104.92065	-577.47797	30.33926	-1174.34387	-411.12659	666.75964	-860.53766	-337.21216	472.67953	-896.66742	-307.9718	290.05545	-876.21289	-251.41341	101.98627	-896.68805	-264.27829	35.78625	-950.59766	-88.62933	97.37631	-896.69061	-502.95816	1788.08557	-1025.56213	NaN	NaN	NaN
125	1.24	-386.2384	1725.61621	-1108.32532	-400.55948	1697.35693	-967.74835	-517.31439	1655.68542	-1134.65845	-543.86255	1626.65747	-996.5188	-579.91254	1510.3186	-1069.23584	-636.47156	1234.70728	-1055.20593	-442.75772	1438.60217	-1082.80847	-393.33408	1266.56055	-1078.0271	-640.27734	1336.43079	-1003.76843	-506.39102	1484.61743	-1251.41394	-468.31656	1288.36523	-1338.51489	-419.59906	1153.85889	-1354.8136	-345.40079	1042.22278	-1352.22046	-243.12381	965.07855	-1299.2002	-276.98648	941.69568	-1338.71216	-226.05203	900.88953	-1336.02563	-498.10098	1470.91626	-884.10687	-531.27643	1280.98376	-801.55243	-518.39746	1134.64563	-781.72711	-480.37061	1019.34442	-766.44128	-419.66537	898.77972	-790.44269	-465.60352	890.00024	-756.74548	-422.50427	831.20013	-757.97113	-418.68311	968.86737	-1208.22485	-387.66989	962.55176	-951.97131	-619.32373	1015.00348	-1099.72217	-610.30609	1014.47723	-985.26257	-530.31396	664.73077	-1237.95825	-591.51807	470.03534	-1202.1062	-686.33557	299.22348	-1197.07458	-728.76727	79.7426	-1157.51453	-768.08606	56.62922	-1105.22363	-577.42535	30.35656	-1174.50098	-402.51489	666.02826	-859.80426	-329.28015	471.65173	-896.74207	-299.6796	288.952	-876.86249	-242.45715	101.11791	-898.05585	-255.3705	35.50545	-952.38666	-79.48518	96.1733	-897.31586	-494.76892	1787.39697	-1023.56299	NaN	NaN	NaN
126	1.25	-378.12463	1724.9281	-1106.41174	-392.95874	1696.43237	-965.90741	-509.46518	1655.24487	-1132.9624	-535.76959	1625.83069	-994.68036	-572.18622	1509.604	-1067.67773	-628.27856	1233.8606	-1053.34973	-434.96967	1438.0686	-1081.51038	-385.25089	1266.09607	-1077.02454	-632.91827	1335.86548	-1002.22998	-499.01691	1484.14563	-1249.93787	-460.46881	1288.32642	-1337.18384	-411.26913	1153.72986	-1353.08984	-335.72751	1042.953	-1350.14197	-232.13367	967.63562	-1297.3866	-266.13004	943.10895	-1336.12769	-214.47513	903.33185	-1333.36877	-490.40378	1469.86633	-882.79889	-523.53284	1280.18762	-800.42584	-511.3873	1134.11926	-780.56763	-472.96277	1018.47931	-765.04932	-413.55844	897.46582	-789.48456	-459.02838	889.0899	-755.42749	-415.88016	830.08105	-756.55823	-410.84341	968.26996	-1207.09937	-378.70389	961.8064	-951.47644	-611.15015	1014.3783	-1097.33997	-601.59467	1014.14893	-982.78748	-524.29047	664.47998	-1237.18835	-586.36652	470.16269	-1201.73218	-683.10724	300.47415	-1196.88403	-728.08966	81.32714	-1157.89783	-767.81421	58.97665	-1105.53906	-577.24872	30.31036	-1174.61646	-392.8605	665.35693	-858.84406	-321.08752	470.5965	-896.63324	-292.09119	287.64832	-877.55176	-234.95937	99.9239	-899.59064	-247.62634	34.79999	-954.59991	-71.83189	94.09854	-897.66931	-486.5376	1786.58606	-1021.4129	NaN	NaN	NaN
127	1.26	-370.14078	1724.27368	-1104.26392	-384.77344	1695.34509	-963.83203	-501.5426	1654.94849	-1131.16675	-528.48517	1625.34155	-993.19751	-564.33472	1508.90356	-1065.99829	-619.95129	1233.0155	-1051.2865	-427.02515	1437.5293	-1080.13928	-377.08701	1265.64417	-1075.87402	-623.90265	1334.85254	-1000.35858	-491.58737	1483.92444	-1248.38196	-452.7988	1288.1073	-1335.62671	-403.10684	1153.59216	-1351.57678	-326.35535	1043.54126	-1348.01184	-221.9807	969.79767	-1294.58447	-255.78719	944.44214	-1332.87292	-203.50183	905.44348	-1330.50037	-481.81152	1469.33093	-881.07672	-515.41156	1279.5332	-799.00903	-503.28445	1133.25085	-779.29456	-465.67398	1017.69653	-763.82019	-406.36908	896.39984	-787.5473	-452.23999	888.23419	-753.98999	-409.47379	828.80255	-755.13477	-402.76874	967.73297	-1205.99023	-369.27704	961.22455	-950.77734	-602.75897	1013.7663	-1094.90283	-592.37103	1013.63428	-980.41461	-517.96515	664.30133	-1236.35376	-580.99365	470.33115	-1201.32751	-679.69275	301.81595	-1196.71912	-727.33154	83.09322	-1158.2323	-767.12787	61.02664	-1105.98254	-577.26459	29.96537	-1174.64038	-382.91898	664.78894	-857.82825	-313.49539	469.5817	-896.27216	-284.99579	286.19662	-878.27209	-229.16924	98.06854	-901.40521	-240.82823	33.16214	-956.51312	-65.81941	91.37578	-897.9585	-478.4603	1786.03809	-1019.29694	NaN	NaN	NaN
